<?xml version="1.0" standalone="no"?>
<!DOCTYPE svg PUBLIC "-//W3C//DTD SVG 20010904//EN"
 "http://www.w3.org/TR/2001/REC-SVG-20010904/DTD/svg10.dtd">
<svg version="1.0" xmlns="http://www.w3.org/2000/svg"
 width="128.000000pt" height="128.000000pt" viewBox="0 0 128.000000 128.000000"
 preserveAspectRatio="xMidYMid meet">
<metadata>
Created by potrace 1.14, written by Peter Selinger 2001-2017
</metadata>
<g transform="translate(0.000000,128.000000) scale(0.100000,-0.100000)"
fill="#000000" stroke="none">
<path d="M787 1242 c-10 -10 -17 -24 -17 -30 0 -38 -124 -122 -201 -137 -36
-7 -190 -87 -196 -101 -3 -8 -11 -14 -19 -14 -8 0 -14 -3 -14 -7 0 -5 -14 -23
-30 -40 -68 -73 -110 -203 -103 -323 4 -80 54 -263 93 -346 42 -87 147 -198
201 -212 72 -18 168 -10 221 20 107 61 202 160 256 268 52 104 112 303 113
379 2 91 -78 248 -160 315 -49 39 -103 101 -116 130 -7 16 -11 49 -8 72 4 50
3 51 -20 26z m67 -291 c55 -85 69 -140 57 -223 -2 -17 -19 -6 -76 48 -89 83
-122 98 -230 98 -97 1 -164 -7 -194 -24 -29 -15 -32 -13 -20 17 13 34 66 82
121 109 24 12 78 38 120 59 42 21 89 49 105 62 l28 25 22 -50 c12 -27 42 -82
67 -121z"/>
</g>
</svg>
